<?xml version="1.0" encoding="UTF-8" standalone="no"?>
<!-- Created with Inkscape (http://www.inkscape.org/) -->

<svg
   version="1.1"
   id="svg2"
   xml:space="preserve"
   width="1169.3333"
   height="1024"
   viewBox="0 0 1169.3333 1024"
   sodipodi:docname="bitcoinbrott.svg"
   inkscape:version="1.1.2 (0a00cf5339, 2022-02-04)"
   xmlns:inkscape="http://www.inkscape.org/namespaces/inkscape"
   xmlns:sodipodi="http://sodipodi.sourceforge.net/DTD/sodipodi-0.dtd"
   xmlns="http://www.w3.org/2000/svg"
   xmlns:svg="http://www.w3.org/2000/svg"><defs
     id="defs6"><clipPath
       clipPathUnits="userSpaceOnUse"
       id="clipPath16"><path
         d="M 0,768 H 877 V 0 H 0 Z"
         id="path14" /></clipPath></defs><sodipodi:namedview
     id="namedview4"
     pagecolor="#ffffff"
     bordercolor="#666666"
     borderopacity="1.0"
     inkscape:pageshadow="2"
     inkscape:pageopacity="0.0"
     inkscape:pagecheckerboard="0"
     showgrid="false"
     inkscape:zoom="0.85253906"
     inkscape:cx="584.72394"
     inkscape:cy="512"
     inkscape:window-width="3766"
     inkscape:window-height="1536"
     inkscape:window-x="0"
     inkscape:window-y="0"
     inkscape:window-maximized="1"
     inkscape:current-layer="g8" /><g
     id="g8"
     inkscape:groupmode="layer"
     inkscape:label="bitcoinbrott"
     transform="matrix(1.3333333,0,0,-1.3333333,0,1024)"><g
       id="g10"><g
         id="g12"
         clip-path="url(#clipPath16)"><g
           id="g18"
           transform="translate(465.1258,752.5555)"><path
             d="m 0,0 407.645,-706.063 c 11.932,-20.666 -2.983,-46.5 -26.846,-46.5 h -815.291 c -23.864,0 -38.779,25.834 -26.847,46.5 L -53.694,0 C -41.762,20.667 -11.932,20.667 0,0"
             style="fill:#ff0000;fill-opacity:1;fill-rule:nonzero;stroke:none"
             id="path20" /></g><g
           id="g22"
           transform="translate(452.4373,679.287)"><path
             d="m 0,0 352.224,-610.07 c 6.543,-11.334 -1.636,-25.5 -14.722,-25.5 h -704.449 c -13.086,0 -21.265,14.166 -14.722,25.5 L -29.445,0 C -22.902,11.333 -6.543,11.333 0,0"
             style="fill:#fbb013;fill-opacity:1;fill-rule:nonzero;stroke:none"
             id="path24" /></g><g
           id="g26"
           transform="translate(434.7295,333.4083)"><path
             d="m 0,0 c -52.277,19.621 -61.82,57.189 -63.343,74.57 -0.329,3.755 3.835,6.211 6.995,4.157 30.513,-19.83 48.358,-6.045 54.925,1.297 1.684,1.884 4.594,2.006 6.439,0.279 23.39,-21.9 41.687,-13.159 51.337,-4.819 3.059,2.644 7.774,0.35 7.506,-3.685 C 60.314,18.532 11.852,2.43 2.806,-0.12 1.882,-0.38 0.898,-0.337 0,0 m -42.711,104.016 c 5.427,-0.05 15.511,-1.121 25.548,-7.328 1.755,-1.085 2.533,-3.23 1.932,-5.203 -1.429,-4.692 -5.695,-12.245 -18.21,-9.898 -12.435,2.331 -14.011,12.265 -13.831,18.04 0.076,2.465 2.095,4.411 4.561,4.389 m 88.705,0.091 c 2.625,0.049 4.741,-2.097 4.658,-4.721 -0.18,-5.625 -1.909,-14.792 -10.804,-18.244 -9.204,-3.564 -16.854,3.986 -20.65,8.899 -1.607,2.079 -1.125,5.105 1.078,6.537 4.564,2.967 13.31,7.296 25.718,7.529 M 151.783,3.158 c -17.655,15.346 -44.295,21.166 -59.128,23.3 -3.583,0.516 -5.107,4.753 -2.747,7.498 14.04,16.332 14.04,51.524 14.04,51.524 0,0 0,46.724 -33.374,93.447 C 37.2,225.65 1.479,223.425 1.479,223.425 c 0,0 -47.713,5.562 -83.312,-73.422 -28.477,-63.184 -10.682,-105.011 -2.422,-119.218 1.552,-2.669 -0.001,-6.057 -3.023,-6.688 -69.552,-14.538 -77.108,-37.19 -84.664,-59.318 -7.787,-22.806 -23.362,-71.754 -23.362,-71.754 0,0 -6.675,-21.137 17.799,-55.623 20.911,-29.465 38.573,-43.5 43.273,-46.963 0.777,-0.571 1.712,-0.873 2.676,-0.873 h 0.812 c 2.643,0 4.727,2.252 4.521,4.888 l -10.296,132.063 c -0.205,2.636 1.878,4.888 4.522,4.888 h 266.673 c 2.632,0 4.711,-2.233 4.523,-4.859 l -9.44,-132.121 c -0.188,-2.626 1.891,-4.859 4.523,-4.859 0.539,0 1.071,0.08 1.573,0.274 16.212,6.269 46.624,44.196 49.136,47.353 0.118,0.148 0.215,0.287 0.313,0.449 1.903,3.161 21.517,36.955 9.865,68.732 0,0 -12.399,35.718 -19.399,50.718 -8.718,18.681 -14.77,38.052 -23.987,46.066"
             style="fill:#000000;fill-opacity:1;fill-rule:nonzero;stroke:none"
             id="path28" /></g><g
           id="g30"
           transform="translate(434.7295,333.4083)"><path
             d="m 0,0 c -52.277,19.621 -61.82,57.189 -63.343,74.57 -0.329,3.755 3.835,6.211 6.995,4.157 30.513,-19.83 48.358,-6.045 54.925,1.297 1.684,1.884 4.594,2.006 6.439,0.279 23.39,-21.9 41.687,-13.159 51.337,-4.819 3.059,2.644 7.774,0.35 7.506,-3.685 C 60.314,18.532 11.852,2.43 2.806,-0.12 1.882,-0.38 0.898,-0.337 0,0 Z m -42.711,104.016 c 5.427,-0.05 15.511,-1.121 25.548,-7.328 1.755,-1.085 2.533,-3.23 1.932,-5.203 -1.429,-4.692 -5.695,-12.245 -18.21,-9.898 -12.435,2.331 -14.011,12.265 -13.831,18.04 0.076,2.465 2.095,4.411 4.561,4.389 z m 88.705,0.091 c 2.625,0.049 4.741,-2.097 4.658,-4.721 -0.18,-5.625 -1.909,-14.792 -10.804,-18.244 -9.204,-3.564 -16.854,3.986 -20.65,8.899 -1.607,2.079 -1.125,5.105 1.078,6.537 4.564,2.967 13.31,7.296 25.718,7.529 z M 151.783,3.158 c -17.655,15.346 -44.295,21.166 -59.128,23.3 -3.583,0.516 -5.107,4.753 -2.747,7.498 14.04,16.332 14.04,51.524 14.04,51.524 0,0 0,46.724 -33.374,93.447 C 37.2,225.65 1.479,223.425 1.479,223.425 c 0,0 -47.713,5.562 -83.312,-73.422 -28.477,-63.184 -10.682,-105.011 -2.422,-119.218 1.552,-2.669 -0.001,-6.057 -3.023,-6.688 -69.552,-14.538 -77.108,-37.19 -84.664,-59.318 -7.787,-22.806 -23.362,-71.754 -23.362,-71.754 0,0 -6.675,-21.137 17.799,-55.623 20.911,-29.465 38.573,-43.5 43.273,-46.963 0.777,-0.571 1.712,-0.873 2.676,-0.873 h 0.812 c 2.643,0 4.727,2.252 4.521,4.888 l -10.296,132.063 c -0.205,2.636 1.878,4.888 4.522,4.888 h 266.673 c 2.632,0 4.711,-2.233 4.523,-4.859 l -9.44,-132.121 c -0.188,-2.626 1.891,-4.859 4.523,-4.859 0.539,0 1.071,0.08 1.573,0.274 16.212,6.269 46.624,44.196 49.136,47.353 0.118,0.148 0.215,0.287 0.313,0.449 1.903,3.161 21.517,36.955 9.865,68.732 0,0 -12.399,35.718 -19.399,50.718 -8.718,18.681 -14.77,38.052 -23.987,46.066 z"
             style="fill:none;stroke:#000000;stroke-width:1;stroke-linecap:butt;stroke-linejoin:miter;stroke-miterlimit:10;stroke-dasharray:none;stroke-opacity:1"
             id="path32" /></g><g
           id="g34"
           transform="translate(559.6075,264.813)"><path
             d="m 0,0 c 7.926,0 14.188,-6.725 13.623,-14.631 l -9.089,-127.207 -0.957,-13.406 -0.241,-3.388 c -0.51,-7.148 -7.803,-18.067 -14.969,-18.067 h -222.135 c -9.035,0 -15.917,21.455 -15.917,21.455 l -1.035,13.406 -9.91,127.119 C -261.249,-6.782 -254.975,0 -247.014,0 Z"
             style="fill:#000000;fill-opacity:1;fill-rule:nonzero;stroke:none"
             id="path36" /></g><g
           id="g38"
           transform="translate(559.6075,264.813)"><path
             d="m 0,0 c 7.926,0 14.188,-6.725 13.623,-14.631 l -9.089,-127.207 -0.957,-13.406 -0.241,-3.388 c -0.51,-7.148 -7.803,-18.067 -14.969,-18.067 h -222.135 c -9.035,0 -15.917,21.455 -15.917,21.455 l -1.035,13.406 -9.91,127.119 C -261.249,-6.782 -254.975,0 -247.014,0 Z"
             style="fill:none;stroke:#fbb013;stroke-width:5;stroke-linecap:butt;stroke-linejoin:miter;stroke-miterlimit:10;stroke-dasharray:none;stroke-opacity:1"
             id="path40" /></g><g
           id="g42"
           transform="translate(309.9222,109.5694)"><path
             d="M 0,0 H 253.262"
             style="fill:#000000;fill-opacity:1;fill-rule:nonzero;stroke:#fbb013;stroke-width:5;stroke-linecap:butt;stroke-linejoin:miter;stroke-miterlimit:10;stroke-dasharray:none;stroke-opacity:1"
             id="path44" /></g><g
           id="g46"
           transform="translate(443.199,162.1811)"><path
             d="m 0,0 c -8.492,-1.359 -15.966,-0.7 -15.966,-0.7 v 22.033 c 0,0 13.724,0.36 18.242,-0.635 C 6.794,19.702 11.21,17.664 11.889,11.55 12.569,5.435 8.492,1.359 0,0 m -15.966,51.634 c 0,0 5.096,0.34 10.531,0 C 0,51.294 4.711,49.765 6.393,47.072 7.801,44.819 9.172,39.065 3.737,34.649 -1.698,30.233 -15.966,31.592 -15.966,31.592 Z M 31.12,17.987 c -2.511,7.453 -12.837,11.577 -12.837,11.577 4.351,0.346 12.969,12.219 6.304,22.75 -6.661,10.53 -22.79,10.388 -22.79,10.388 v 17.117 h -9.61 V 63.017 h -7.351 v 16.802 h -9.974 V 63.184 l -21.061,0.153 V 52.314 l 9.195,-0.497 c 1.892,-0.103 3.374,-1.667 3.374,-3.562 V 2.76 c 0,-1.899 -1.54,-3.439 -3.44,-3.439 h -9.129 v -11.89 h 21.207 v -16.645 h 9.706 v 16.469 h 7.473 V -29.231 H 2.276 v 16.642 c 2.616,-0.697 18.106,1.379 24.22,8.513 6.115,7.133 7.134,14.607 4.624,22.063"
             style="fill:#fbb013;fill-opacity:1;fill-rule:nonzero;stroke:none"
             id="path48" /></g></g></g></g></svg>
